<svg xmlns="http://www.w3.org/2000/svg" xmlns:xlink="http://www.w3.org/1999/xlink" width="500" zoomAndPan="magnify" viewBox="0 0 375 93.749996" height="125" preserveAspectRatio="xMidYMid meet" version="1.0"><defs><filter x="0%" y="0%" width="100%" height="100%" id="4f2479e383"><feColorMatrix values="0 0 0 0 1 0 0 0 0 1 0 0 0 0 1 0 0 0 1 0" color-interpolation-filters="sRGB"/></filter><mask id="99d163e264"><g filter="url(#4f2479e383)"><rect x="-37.5" width="450" fill="#000000" y="-9.375" height="112.499995" fill-opacity="0.76"/></g></mask><clipPath id="0d8ce10024"><path d="M 0.128906 0.351562 L 27 0.351562 L 27 19 L 0.128906 19 Z M 0.128906 0.351562 " clip-rule="nonzero"/></clipPath><clipPath id="e5ef7dda86"><path d="M 0.128906 0.351562 L 7 0.351562 L 7 34.011719 L 0.128906 34.011719 Z M 0.128906 0.351562 " clip-rule="nonzero"/></clipPath><clipPath id="621d06f737"><path d="M 0.128906 0.351562 L 46.507812 0.351562 L 46.507812 9 L 0.128906 9 Z M 0.128906 0.351562 " clip-rule="nonzero"/></clipPath><clipPath id="3321b80b81"><rect x="0" width="48" y="0" height="35"/></clipPath></defs><g mask="url(#99d163e264)"><g transform="matrix(1, 0, 0, 1, 6, 9)"><g clip-path="url(#3321b80b81)"><g clip-path="url(#0d8ce10024)"><path fill="#29abe2" d="M 2.992188 0.351562 L 26.699219 0.351562 L 0.152344 18.898438 L 0.128906 0.351562 Z M 2.992188 0.351562 " fill-opacity="1" fill-rule="nonzero"/></g><g clip-path="url(#e5ef7dda86)"><path fill="#0071bc" d="M 0.128906 3.988281 L 0.128906 34.007812 L 6.902344 0.371094 L 0.128906 0.351562 Z M 0.128906 3.988281 " fill-opacity="0.5" fill-rule="nonzero"/></g><g clip-path="url(#621d06f737)"><path fill="#0071bc" d="M 5.136719 0.394531 L 46.507812 0.371094 L 0.179688 8.238281 L 0.128906 0.394531 Z M 5.136719 0.394531 " fill-opacity="0.5" fill-rule="nonzero"/></g></g></g></g></svg>