<svg xmlns="http://www.w3.org/2000/svg" xmlns:xlink="http://www.w3.org/1999/xlink" width="500" zoomAndPan="magnify" viewBox="0 0 375 93.749996" height="125" preserveAspectRatio="xMidYMid meet" version="1.0"><defs><filter x="0%" y="0%" width="100%" height="100%" id="f7d038a96d"><feColorMatrix values="0 0 0 0 1 0 0 0 0 1 0 0 0 0 1 0 0 0 1 0" color-interpolation-filters="sRGB"/></filter><g/><mask id="a5f8e3a97b"><g filter="url(#f7d038a96d)"><rect x="-37.5" width="450" fill="#000000" y="-9.375" height="112.499995" fill-opacity="0.76"/></g></mask><clipPath id="3ba199ebe0"><path d="M 0.128906 0.351562 L 27 0.351562 L 27 19 L 0.128906 19 Z M 0.128906 0.351562 " clip-rule="nonzero"/></clipPath><clipPath id="bd4be2ff61"><path d="M 0.128906 0.351562 L 7 0.351562 L 7 34.011719 L 0.128906 34.011719 Z M 0.128906 0.351562 " clip-rule="nonzero"/></clipPath><clipPath id="d6df0d86ff"><path d="M 0.128906 0.351562 L 46.507812 0.351562 L 46.507812 9 L 0.128906 9 Z M 0.128906 0.351562 " clip-rule="nonzero"/></clipPath><clipPath id="bd2a74c067"><rect x="0" width="48" y="0" height="35"/></clipPath></defs><g fill="#ffffff" fill-opacity="1"><g transform="translate(6.54457, 73.639874)"><g><path d="M 30.03125 -42.046875 C 33.882812 -42.046875 37.390625 -41.160156 40.546875 -39.390625 C 43.703125 -37.617188 46.175781 -35.128906 47.96875 -31.921875 C 49.769531 -28.710938 50.671875 -24.976562 50.671875 -20.71875 C 50.671875 -16.457031 49.769531 -12.722656 47.96875 -9.515625 C 46.175781 -6.304688 43.703125 -3.816406 40.546875 -2.046875 C 37.390625 -0.273438 33.882812 0.609375 30.03125 0.609375 C 24.332031 0.609375 19.992188 -1.1875 17.015625 -4.78125 L 17.015625 0 L 5.546875 0 L 5.546875 -57.140625 L 17.5625 -57.140625 L 17.5625 -37.046875 C 20.59375 -40.378906 24.75 -42.046875 30.03125 -42.046875 Z M 27.953125 -9.234375 C 31.035156 -9.234375 33.566406 -10.273438 35.546875 -12.359375 C 37.523438 -14.441406 38.515625 -17.226562 38.515625 -20.71875 C 38.515625 -24.207031 37.523438 -26.988281 35.546875 -29.0625 C 33.566406 -31.144531 31.035156 -32.1875 27.953125 -32.1875 C 24.867188 -32.1875 22.335938 -31.144531 20.359375 -29.0625 C 18.390625 -26.988281 17.40625 -24.207031 17.40625 -20.71875 C 17.40625 -17.226562 18.390625 -14.441406 20.359375 -12.359375 C 22.335938 -10.273438 24.867188 -9.234375 27.953125 -9.234375 Z M 27.953125 -9.234375 "/></g></g></g><g fill="#ffffff" fill-opacity="1"><g transform="translate(59.677404, 73.639874)"><g><path d="M 46.125 -20.5625 C 46.125 -20.40625 46.050781 -19.328125 45.90625 -17.328125 L 14.5625 -17.328125 C 15.125 -14.765625 16.457031 -12.738281 18.5625 -11.25 C 20.664062 -9.757812 23.285156 -9.015625 26.421875 -9.015625 C 28.578125 -9.015625 30.488281 -9.332031 32.15625 -9.96875 C 33.820312 -10.613281 35.375 -11.628906 36.8125 -13.015625 L 43.203125 -6.078125 C 39.304688 -1.617188 33.609375 0.609375 26.109375 0.609375 C 21.429688 0.609375 17.296875 -0.300781 13.703125 -2.125 C 10.109375 -3.945312 7.335938 -6.472656 5.390625 -9.703125 C 3.441406 -12.941406 2.46875 -16.613281 2.46875 -20.71875 C 2.46875 -24.769531 3.425781 -28.425781 5.34375 -31.6875 C 7.269531 -34.945312 9.914062 -37.488281 13.28125 -39.3125 C 16.644531 -41.132812 20.40625 -42.046875 24.5625 -42.046875 C 28.625 -42.046875 32.296875 -41.171875 35.578125 -39.421875 C 38.867188 -37.679688 41.445312 -35.179688 43.3125 -31.921875 C 45.1875 -28.660156 46.125 -24.875 46.125 -20.5625 Z M 24.640625 -32.96875 C 21.921875 -32.96875 19.632812 -32.195312 17.78125 -30.65625 C 15.9375 -29.113281 14.8125 -27.007812 14.40625 -24.34375 L 34.8125 -24.34375 C 34.394531 -26.957031 33.265625 -29.046875 31.421875 -30.609375 C 29.578125 -32.179688 27.316406 -32.96875 24.640625 -32.96875 Z M 24.640625 -32.96875 "/></g></g></g><g fill="#ffffff" fill-opacity="1"><g transform="translate(108.267002, 73.639874)"><g><path d="M 47.75 -57.140625 L 47.75 0 L 36.28125 0 L 36.28125 -4.78125 C 33.300781 -1.1875 28.984375 0.609375 23.328125 0.609375 C 19.429688 0.609375 15.90625 -0.257812 12.75 -2 C 9.59375 -3.75 7.113281 -6.238281 5.3125 -9.46875 C 3.519531 -12.707031 2.625 -16.457031 2.625 -20.71875 C 2.625 -24.976562 3.519531 -28.722656 5.3125 -31.953125 C 7.113281 -35.191406 9.59375 -37.679688 12.75 -39.421875 C 15.90625 -41.171875 19.429688 -42.046875 23.328125 -42.046875 C 28.617188 -42.046875 32.753906 -40.378906 35.734375 -37.046875 L 35.734375 -57.140625 Z M 25.421875 -9.234375 C 28.441406 -9.234375 30.953125 -10.273438 32.953125 -12.359375 C 34.960938 -14.441406 35.96875 -17.226562 35.96875 -20.71875 C 35.96875 -24.207031 34.960938 -26.988281 32.953125 -29.0625 C 30.953125 -31.144531 28.441406 -32.1875 25.421875 -32.1875 C 22.335938 -32.1875 19.789062 -31.144531 17.78125 -29.0625 C 15.78125 -26.988281 14.78125 -24.207031 14.78125 -20.71875 C 14.78125 -17.226562 15.78125 -14.441406 17.78125 -12.359375 C 19.789062 -10.273438 22.335938 -9.234375 25.421875 -9.234375 Z M 25.421875 -9.234375 "/></g></g></g><g fill="#ffffff" fill-opacity="1"><g transform="translate(161.553843, 73.639874)"><g><path d="M 5.546875 -41.4375 L 17.5625 -41.4375 L 17.5625 0 L 5.546875 0 Z M 11.546875 -47.140625 C 9.648438 -47.140625 8.097656 -47.753906 6.890625 -48.984375 C 5.679688 -50.210938 5.078125 -51.78125 5.078125 -53.6875 C 5.078125 -55.53125 5.679688 -57.066406 6.890625 -58.296875 C 8.097656 -59.535156 9.648438 -60.15625 11.546875 -60.15625 C 13.453125 -60.15625 15.003906 -59.535156 16.203125 -58.296875 C 17.410156 -57.066406 18.015625 -55.53125 18.015625 -53.6875 C 18.015625 -51.78125 17.410156 -50.210938 16.203125 -48.984375 C 15.003906 -47.753906 13.453125 -47.140625 11.546875 -47.140625 Z M 11.546875 -47.140625 "/></g></g></g><g fill="#ffffff" fill-opacity="1"><g transform="translate(184.732086, 73.639874)"><g><path d="M 17.015625 -35.96875 C 18.453125 -37.96875 20.390625 -39.476562 22.828125 -40.5 C 25.273438 -41.53125 28.085938 -42.046875 31.265625 -42.046875 L 31.265625 -30.953125 C 29.929688 -31.054688 29.035156 -31.109375 28.578125 -31.109375 C 25.128906 -31.109375 22.429688 -30.144531 20.484375 -28.21875 C 18.535156 -26.300781 17.5625 -23.414062 17.5625 -19.5625 L 17.5625 0 L 5.546875 0 L 5.546875 -41.4375 L 17.015625 -41.4375 Z M 17.015625 -35.96875 "/></g></g></g><g fill="#ffffff" fill-opacity="1"><g transform="translate(217.920861, 73.639874)"><g><path d="M 30.734375 -42.046875 C 35.867188 -42.046875 40.015625 -40.503906 43.171875 -37.421875 C 46.328125 -34.347656 47.90625 -29.78125 47.90625 -23.71875 L 47.90625 0 L 35.890625 0 L 35.890625 -21.875 C 35.890625 -25.15625 35.171875 -27.601562 33.734375 -29.21875 C 32.296875 -30.84375 30.21875 -31.65625 27.5 -31.65625 C 24.46875 -31.65625 22.050781 -30.71875 20.25 -28.84375 C 18.457031 -26.96875 17.5625 -24.179688 17.5625 -20.484375 L 17.5625 0 L 5.546875 0 L 5.546875 -57.140625 L 17.5625 -57.140625 L 17.5625 -37.125 C 19.15625 -38.71875 21.078125 -39.9375 23.328125 -40.78125 C 25.585938 -41.625 28.054688 -42.046875 30.734375 -42.046875 Z M 30.734375 -42.046875 "/></g></g></g><g fill="#ffffff" fill-opacity="1"><g transform="translate(271.130704, 73.639874)"><g><path d="M 22.25 -42.046875 C 28.675781 -42.046875 33.609375 -40.519531 37.046875 -37.46875 C 40.484375 -34.414062 42.203125 -29.804688 42.203125 -23.640625 L 42.203125 0 L 30.953125 0 L 30.953125 -5.15625 C 28.703125 -1.3125 24.492188 0.609375 18.328125 0.609375 C 15.148438 0.609375 12.390625 0.0703125 10.046875 -1 C 7.710938 -2.082031 5.925781 -3.570312 4.6875 -5.46875 C 3.457031 -7.363281 2.84375 -9.519531 2.84375 -11.9375 C 2.84375 -15.789062 4.289062 -18.820312 7.1875 -21.03125 C 10.09375 -23.238281 14.578125 -24.34375 20.640625 -24.34375 L 30.1875 -24.34375 C 30.1875 -26.957031 29.390625 -28.96875 27.796875 -30.375 C 26.210938 -31.789062 23.828125 -32.5 20.640625 -32.5 C 18.429688 -32.5 16.257812 -32.148438 14.125 -31.453125 C 12 -30.765625 10.191406 -29.832031 8.703125 -28.65625 L 4.390625 -37.046875 C 6.648438 -38.640625 9.359375 -39.867188 12.515625 -40.734375 C 15.671875 -41.609375 18.914062 -42.046875 22.25 -42.046875 Z M 21.328125 -7.46875 C 23.378906 -7.46875 25.203125 -7.941406 26.796875 -8.890625 C 28.390625 -9.835938 29.519531 -11.238281 30.1875 -13.09375 L 30.1875 -17.328125 L 21.953125 -17.328125 C 17.023438 -17.328125 14.5625 -15.707031 14.5625 -12.46875 C 14.5625 -10.9375 15.160156 -9.71875 16.359375 -8.8125 C 17.566406 -7.914062 19.222656 -7.46875 21.328125 -7.46875 Z M 21.328125 -7.46875 "/></g></g></g><g fill="#ffffff" fill-opacity="1"><g transform="translate(318.642256, 73.639874)"><g><path d="M 30.734375 -42.046875 C 35.867188 -42.046875 40.015625 -40.503906 43.171875 -37.421875 C 46.328125 -34.347656 47.90625 -29.78125 47.90625 -23.71875 L 47.90625 0 L 35.890625 0 L 35.890625 -21.875 C 35.890625 -25.15625 35.171875 -27.601562 33.734375 -29.21875 C 32.296875 -30.84375 30.21875 -31.65625 27.5 -31.65625 C 24.46875 -31.65625 22.050781 -30.71875 20.25 -28.84375 C 18.457031 -26.96875 17.5625 -24.179688 17.5625 -20.484375 L 17.5625 0 L 5.546875 0 L 5.546875 -41.4375 L 17.015625 -41.4375 L 17.015625 -36.578125 C 18.609375 -38.328125 20.585938 -39.675781 22.953125 -40.625 C 25.316406 -41.570312 27.910156 -42.046875 30.734375 -42.046875 Z M 30.734375 -42.046875 "/></g></g></g><g mask="url(#a5f8e3a97b)"><g transform="matrix(1, 0, 0, 1, 6, 9)"><g clip-path="url(#bd2a74c067)"><g clip-path="url(#3ba199ebe0)"><path fill="#29abe2" d="M 2.992188 0.351562 L 26.699219 0.351562 L 0.152344 18.898438 L 0.128906 0.351562 Z M 2.992188 0.351562 " fill-opacity="1" fill-rule="nonzero"/></g><g clip-path="url(#bd4be2ff61)"><path fill="#0071bc" d="M 0.128906 3.988281 L 0.128906 34.007812 L 6.902344 0.371094 L 0.128906 0.351562 Z M 0.128906 3.988281 " fill-opacity="0.5" fill-rule="nonzero"/></g><g clip-path="url(#d6df0d86ff)"><path fill="#0071bc" d="M 5.136719 0.394531 L 46.507812 0.371094 L 0.179688 8.238281 L 0.128906 0.394531 Z M 5.136719 0.394531 " fill-opacity="0.5" fill-rule="nonzero"/></g></g></g></g></svg>